<svg width="16" height="17" viewBox="0 0 16 17" fill="none" xmlns="http://www.w3.org/2000/svg">
<path d="M7 11.677L4.5 9.17647L5.2065 8.46997L7 10.263L10.7925 6.46997L11.5 7.17747L7 11.677Z" fill="#A48D2F"/>
<path d="M8 1.96997C6.61553 1.96997 5.26216 2.38051 4.11101 3.14968C2.95987 3.91885 2.06266 5.0121 1.53285 6.29119C1.00303 7.57027 0.86441 8.97774 1.13451 10.3356C1.4046 11.6935 2.07129 12.9408 3.05026 13.9197C4.02922 14.8987 5.2765 15.5654 6.63437 15.8355C7.99224 16.1056 9.3997 15.9669 10.6788 15.4371C11.9579 14.9073 13.0511 14.0101 13.8203 12.859C14.5895 11.7078 15 10.3544 15 8.96997C15 7.11346 14.2625 5.33298 12.9497 4.02022C11.637 2.70747 9.85652 1.96997 8 1.96997ZM8 14.97C6.81332 14.97 5.65328 14.6181 4.66658 13.9588C3.67989 13.2995 2.91085 12.3624 2.45673 11.2661C2.0026 10.1697 1.88378 8.96332 2.11529 7.79943C2.3468 6.63554 2.91825 5.56645 3.75736 4.72733C4.59648 3.88821 5.66558 3.31677 6.82946 3.08526C7.99335 2.85375 9.19975 2.97257 10.2961 3.42669C11.3925 3.88082 12.3295 4.64985 12.9888 5.63655C13.6481 6.62324 14 7.78328 14 8.96997C14 10.5613 13.3679 12.0874 12.2426 13.2126C11.1174 14.3378 9.5913 14.97 8 14.97Z" fill="#A48D2F"/>
</svg>
