<svg width="17" height="17" viewBox="0 0 17 17" fill="none" xmlns="http://www.w3.org/2000/svg">
<path d="M15.77 15.28L11.47 10.98C13.37 8.67999 13.07 5.17999 10.77 3.27999C8.47003 1.37999 4.97003 1.67999 3.07003 3.97999C1.17003 6.27999 1.47003 9.77999 3.77003 11.68C5.77003 13.38 8.77003 13.38 10.77 11.68L15.07 15.98L15.77 15.28ZM2.77003 7.47999C2.77003 4.97999 4.77003 2.97999 7.27003 2.97999C9.77003 2.97999 11.77 4.97999 11.77 7.47999C11.77 9.97999 9.77003 11.98 7.27003 11.98C4.77003 11.98 2.77003 9.97999 2.77003 7.47999Z" fill="#A48D2F"/>
</svg>
