<svg width="17" height="17" viewBox="0 0 17 17" fill="none" xmlns="http://www.w3.org/2000/svg">
<path d="M15.14 15.28L10.84 10.98C12.74 8.67999 12.44 5.17999 10.14 3.27999C7.84003 1.37999 4.34003 1.67999 2.44003 3.97999C0.540028 6.27999 0.840029 9.77999 3.14003 11.68C5.14003 13.38 8.14003 13.38 10.14 11.68L14.44 15.98L15.14 15.28ZM2.14003 7.47999C2.14003 4.97999 4.14003 2.97999 6.64003 2.97999C9.14003 2.97999 11.14 4.97999 11.14 7.47999C11.14 9.97999 9.14003 11.98 6.64003 11.98C4.14003 11.98 2.14003 9.97999 2.14003 7.47999Z" fill="#A48D2F"/>
</svg>
