<svg width="25" height="25" viewBox="0 0 25 25" fill="none" xmlns="http://www.w3.org/2000/svg">
<path d="M18.2 2.41992L19.3948 4.66992L21.95 4.98042L20.075 6.67017L20.45 9.16992L18.2 7.76367L15.95 9.16992L16.325 6.67017L14.45 4.98042L17.075 4.66992L18.2 2.41992Z" fill="#A48D2F"/>
<path d="M17.9876 10.8567L16.5345 10.4832C16.274 11.4869 15.7219 12.3909 14.9478 13.081C14.1738 13.771 13.2126 14.2162 12.1857 14.3602C11.1588 14.5043 10.1122 14.3407 9.17821 13.8903C8.2442 13.4398 7.46467 12.7226 6.93808 11.8293C6.4115 10.9359 6.16149 9.90659 6.21964 8.87126C6.2778 7.83592 6.64151 6.84105 7.26482 6.01232C7.88814 5.1836 8.74309 4.55821 9.72167 4.21516C10.7003 3.87211 11.7586 3.82679 12.7629 4.08493L13.1371 2.63256C11.6734 2.25237 10.1243 2.37531 8.7389 2.98162C7.35346 3.58793 6.21207 4.64241 5.49816 5.9756C4.78425 7.30879 4.53927 8.84328 4.80258 10.3325C5.0659 11.8217 5.82222 13.1791 6.95001 14.1867V23.4199L11.45 20.4199L15.95 23.4199V14.2008C16.946 13.313 17.6553 12.1489 17.9876 10.8567ZM14.45 20.617L11.45 18.6171L8.45001 20.617V15.2074C9.38077 15.6751 10.4078 15.919 11.4495 15.9198C12.4911 15.9206 13.5185 15.6783 14.45 15.2121V20.617Z" fill="#A48D2F"/>
</svg>
