<svg width="25" height="25" viewBox="0 0 25 25" fill="none" xmlns="http://www.w3.org/2000/svg">
<g clip-path="url(#clip0_1_149)">
<path d="M24.155 12.6249C23.2729 10.3431 21.7415 8.36984 19.7501 6.94895C17.7587 5.52805 15.3946 4.72181 12.95 4.62988C10.5054 4.72181 8.14129 5.52805 6.1499 6.94895C4.15851 8.36984 2.62712 10.3431 1.745 12.6249C1.68542 12.7897 1.68542 12.9701 1.745 13.1349C2.62712 15.4166 4.15851 17.3899 6.1499 18.8108C8.14129 20.2317 10.5054 21.038 12.95 21.1299C15.3946 21.038 17.7587 20.2317 19.7501 18.8108C21.7415 17.3899 23.2729 15.4166 24.155 13.1349C24.2146 12.9701 24.2146 12.7897 24.155 12.6249ZM12.95 19.6299C8.975 19.6299 4.775 16.6824 3.2525 12.8799C4.775 9.07738 8.975 6.12988 12.95 6.12988C16.925 6.12988 21.125 9.07738 22.6475 12.8799C21.125 16.6824 16.925 19.6299 12.95 19.6299Z" fill="#A48D2F"/>
<path d="M12.95 8.37988C12.06 8.37988 11.19 8.6438 10.4499 9.13827C9.70993 9.63274 9.13315 10.3355 8.79256 11.1578C8.45196 11.9801 8.36285 12.8849 8.53648 13.7578C8.71011 14.6307 9.1387 15.4325 9.76803 16.0619C10.3974 16.6912 11.1992 17.1198 12.0721 17.2934C12.945 17.4671 13.8498 17.3779 14.6721 17.0373C15.4944 16.6967 16.1972 16.12 16.6916 15.3799C17.1861 14.6399 17.45 13.7699 17.45 12.8799C17.45 11.6864 16.9759 10.5418 16.132 9.6979C15.2881 8.85399 14.1435 8.37988 12.95 8.37988ZM12.95 15.8799C12.3567 15.8799 11.7767 15.7039 11.2833 15.3743C10.79 15.0446 10.4054 14.5761 10.1784 14.0279C9.95131 13.4798 9.8919 12.8766 10.0077 12.2946C10.1234 11.7127 10.4091 11.1781 10.8287 10.7586C11.2483 10.339 11.7828 10.0533 12.3647 9.93753C12.9467 9.82177 13.5499 9.88118 14.0981 10.1082C14.6462 10.3353 15.1148 10.7198 15.4444 11.2132C15.7741 11.7065 15.95 12.2865 15.95 12.8799C15.95 13.6755 15.6339 14.4386 15.0713 15.0012C14.5087 15.5638 13.7457 15.8799 12.95 15.8799Z" fill="#A48D2F"/>
</g>
<defs>
<clipPath id="clip0_1_149">
<rect width="24" height="24" fill="white" transform="translate(0.950012 0.879883)"/>
</clipPath>
</defs>
</svg>
