<svg width="16" height="16" viewBox="0 0 16 16" fill="none" xmlns="http://www.w3.org/2000/svg">
<rect width="16" height="16" fill="white" fill-opacity="0.01" style="mix-blend-mode:multiply"/>
<path d="M14.5 13.7929L10.724 10.0169C11.6313 8.92758 12.0838 7.53038 11.9872 6.11596C11.8907 4.70153 11.2525 3.37879 10.2055 2.42288C9.15857 1.46698 7.78336 0.951515 6.36602 0.983723C4.94867 1.01593 3.5983 1.59333 2.59582 2.59581C1.59335 3.59828 1.01595 4.94865 0.983738 6.366C0.95153 7.78335 1.46699 9.15855 2.4229 10.2055C3.3788 11.2525 4.70155 11.8907 6.11597 11.9872C7.53039 12.0838 8.92759 11.6313 10.0169 10.7239L13.793 14.5L14.5 13.7929ZM2.00001 6.5C2.00001 5.60998 2.26393 4.73995 2.7584 3.99993C3.25286 3.25991 3.95567 2.68313 4.77794 2.34254C5.6002 2.00194 6.505 1.91283 7.37792 2.08646C8.25083 2.2601 9.05266 2.68868 9.68199 3.31802C10.3113 3.94735 10.7399 4.74918 10.9135 5.62209C11.0872 6.495 10.9981 7.3998 10.6575 8.22207C10.3169 9.04434 9.7401 9.74714 9.00008 10.2416C8.26006 10.7361 7.39003 11 6.50001 11C5.30694 10.9987 4.16312 10.5241 3.31949 9.68052C2.47587 8.83689 2.00133 7.69306 2.00001 6.5Z" fill="#525252"/>
</svg>
