<svg width="13" height="18" viewBox="0 0 13 18" fill="none" xmlns="http://www.w3.org/2000/svg">
<path d="M6.56851 1.41735C7.19177 1.41735 7.80104 1.60259 8.31926 1.94964C8.83748 2.29669 9.24139 2.78996 9.4799 3.36709C9.71841 3.94421 9.78082 4.57926 9.65922 5.19193C9.53763 5.8046 9.2375 6.36737 8.79679 6.80908C8.35608 7.25079 7.79458 7.5516 7.18329 7.67347C6.57201 7.79534 5.9384 7.73279 5.36258 7.49374C4.78676 7.25469 4.2946 6.84987 3.94834 6.33047C3.60207 5.81107 3.41725 5.20043 3.41725 4.57576C3.41725 3.7381 3.74926 2.93474 4.34023 2.34243C4.93121 1.75011 5.73275 1.41735 6.56851 1.41735ZM6.56851 0.153992C5.69595 0.153992 4.84298 0.413324 4.11747 0.899193C3.39196 1.38506 2.82649 2.07565 2.49257 2.88362C2.15866 3.69159 2.07129 4.58066 2.24152 5.4384C2.41175 6.29614 2.83193 7.08402 3.44892 7.70241C4.06592 8.32081 4.85202 8.74194 5.70782 8.91256C6.56362 9.08317 7.45068 8.99561 8.25682 8.66093C9.06297 8.32626 9.75199 7.75951 10.2368 7.03236C10.7215 6.3052 10.9803 5.4503 10.9803 4.57576C10.9803 3.40303 10.5155 2.27834 9.6881 1.4491C8.86073 0.619855 7.73858 0.153992 6.56851 0.153992ZM12.871 17.841H11.6105V14.6826C11.6105 14.2679 11.529 13.8572 11.3707 13.474C11.2123 13.0908 10.9802 12.7426 10.6875 12.4493C10.3949 12.156 10.0475 11.9234 9.6652 11.7647C9.28288 11.6059 8.8731 11.5242 8.45927 11.5242H4.67776C3.84199 11.5242 3.04045 11.857 2.44948 12.4493C1.8585 13.0416 1.5265 13.845 1.5265 14.6826V17.841H0.265991V14.6826C0.265991 13.5099 0.730801 12.3852 1.55817 11.556C2.38553 10.7267 3.50768 10.2609 4.67776 10.2609H8.45927C9.62934 10.2609 10.7515 10.7267 11.5789 11.556C12.4062 12.3852 12.871 13.5099 12.871 14.6826V17.841Z" fill="#323232"/>
</svg>
