<svg width="21" height="21" viewBox="0 0 21 21" fill="none" xmlns="http://www.w3.org/2000/svg">
<path d="M9.48526 0L19.3848 1.41421L20.799 11.3137L11.6066 20.5061C11.2161 20.8967 10.583 20.8967 10.1924 20.5061L0.292897 10.6066C-0.0976325 10.216 -0.0976325 9.58295 0.292897 9.19235L9.48526 0ZM10.1924 2.12132L2.41422 9.89945L10.8995 18.3848L18.6777 10.6066L17.6171 3.18198L10.1924 2.12132ZM12.3138 8.48525C11.5327 7.70423 11.5327 6.4379 12.3138 5.65685C13.0948 4.87581 14.3611 4.87581 15.1422 5.65685C15.9232 6.4379 15.9232 7.70423 15.1422 8.48525C14.3611 9.26635 13.0948 9.26635 12.3138 8.48525Z" fill="#CBAF1C"/>
</svg>
