<svg width="17" height="17" viewBox="0 0 17 17" fill="none" xmlns="http://www.w3.org/2000/svg">
<path d="M15.63 15.28L11.33 10.98C13.23 8.67999 12.93 5.17999 10.63 3.27999C8.33002 1.37999 4.83002 1.67999 2.93002 3.97999C1.03002 6.27999 1.33002 9.77999 3.63002 11.68C5.63002 13.38 8.63002 13.38 10.63 11.68L14.93 15.98L15.63 15.28ZM2.63002 7.47999C2.63002 4.97999 4.63002 2.97999 7.13002 2.97999C9.63002 2.97999 11.63 4.97999 11.63 7.47999C11.63 9.97999 9.63002 11.98 7.13002 11.98C4.63002 11.98 2.63002 9.97999 2.63002 7.47999Z" fill="#A48D2F"/>
</svg>
