<svg width="18" height="18" viewBox="0 0 18 18" fill="none" xmlns="http://www.w3.org/2000/svg">
<path d="M17.6082 17.0457L12.8485 12.2752C13.9922 10.899 14.5625 9.1338 14.4408 7.34687C14.3191 5.55994 13.5147 3.88883 12.195 2.68118C10.8753 1.47353 9.14184 0.822314 7.35527 0.863004C5.56869 0.903695 3.86655 1.63316 2.60292 2.89965C1.3393 4.16614 0.611484 5.87214 0.570886 7.66277C0.530288 9.45339 1.18003 11.1908 2.38495 12.5135C3.58987 13.8362 5.2572 14.6424 7.04009 14.7644C8.82297 14.8864 10.5841 14.3147 11.9572 13.1684L16.717 17.9389L17.6082 17.0457ZM1.8519 7.83205C1.8519 6.70764 2.18458 5.60848 2.80785 4.67356C3.43113 3.73865 4.31702 3.00997 5.35349 2.57968C6.38996 2.14939 7.53046 2.0368 8.63078 2.25616C9.73109 2.47552 10.7418 3.01698 11.5351 3.81206C12.3284 4.60714 12.8686 5.62013 13.0875 6.72294C13.3063 7.82574 13.194 8.96883 12.7647 10.0077C12.3353 11.0465 11.6083 11.9344 10.6755 12.5591C9.74271 13.1838 8.64604 13.5172 7.52417 13.5172C6.0203 13.5155 4.57851 12.916 3.51511 11.8502C2.45172 10.7844 1.85357 9.33933 1.8519 7.83205Z" fill="#323232"/>
</svg>
