<svg width="14" height="19" viewBox="0 0 14 19" fill="none" xmlns="http://www.w3.org/2000/svg">
<path d="M6.83511 2.148C7.45837 2.148 8.06764 2.33324 8.58586 2.68029C9.10408 3.02734 9.50799 3.52062 9.7465 4.09774C9.98501 4.67486 10.0474 5.30991 9.92582 5.92258C9.80423 6.53525 9.5041 7.09802 9.06339 7.53974C8.62268 7.98145 8.06118 8.28225 7.44989 8.40412C6.83861 8.52599 6.205 8.46344 5.62918 8.22439C5.05336 7.98534 4.5612 7.58052 4.21494 7.06112C3.86867 6.54173 3.68385 5.93108 3.68385 5.30641C3.68385 4.46875 4.01586 3.66539 4.60684 3.07308C5.19781 2.48076 5.99935 2.148 6.83511 2.148ZM6.83511 0.884644C5.96255 0.884644 5.10958 1.14398 4.38407 1.62985C3.65856 2.11571 3.09309 2.8063 2.75918 3.61427C2.42526 4.42224 2.33789 5.31131 2.50812 6.16905C2.67835 7.02679 3.09853 7.81467 3.71553 8.43307C4.33252 9.05146 5.11862 9.47259 5.97442 9.64321C6.83022 9.81382 7.71728 9.72626 8.52342 9.39158C9.32957 9.05691 10.0186 8.49016 10.5034 7.76301C10.9881 7.03585 11.2469 6.18095 11.2469 5.30641C11.2469 4.13368 10.7821 3.00899 9.9547 2.17975C9.12734 1.35051 8.00519 0.884644 6.83511 0.884644ZM13.1376 18.5717H11.8771V15.4133C11.8771 14.9985 11.7956 14.5878 11.6373 14.2046C11.4789 13.8214 11.2468 13.4733 10.9541 13.18C10.6615 12.8867 10.3141 12.654 9.93181 12.4953C9.54948 12.3366 9.1397 12.2549 8.72587 12.2549H4.94436C4.10859 12.2549 3.30706 12.5877 2.71608 13.18C2.1251 13.7723 1.7931 14.5756 1.7931 15.4133V18.5717H0.532593V15.4133C0.532593 14.2406 0.997403 13.1159 1.82477 12.2866C2.65214 11.4574 3.77428 10.9915 4.94436 10.9915H8.72587C9.89594 10.9915 11.0181 11.4574 11.8455 12.2866C12.6728 13.1159 13.1376 14.2406 13.1376 15.4133V18.5717Z" fill="#323232"/>
</svg>
