<svg width="65" height="65" viewBox="0 0 65 65" fill="none" xmlns="http://www.w3.org/2000/svg">
<path opacity="0.8" d="M32.67 64.02C50.3431 64.02 64.67 49.6931 64.67 32.02C64.67 14.3469 50.3431 0.0200195 32.67 0.0200195C14.9969 0.0200195 0.669983 14.3469 0.669983 32.02C0.669983 49.6931 14.9969 64.02 32.67 64.02Z" fill="#525252" fill-opacity="0.9"/>
<path d="M27.2255 43.1312C26.6733 43.1312 26.2255 42.6835 26.2255 42.1312V20.1312C26.2241 19.7732 26.4142 19.4418 26.7238 19.2622C27.0335 19.0826 27.4155 19.0822 27.7255 19.2612L46.7255 30.2612C47.0388 30.4387 47.2325 30.771 47.2325 31.1312C47.2325 31.4913 47.0388 31.8236 46.7255 32.0012L27.7255 43.0012C27.5731 43.0876 27.4007 43.1324 27.2255 43.1312Z" fill="#F3F3F3"/>
</svg>
