<svg width="24" height="24" viewBox="0 0 24 24" fill="none" xmlns="http://www.w3.org/2000/svg">
<path d="M10.9042 2.10022L20.8037 3.51443L22.2179 13.414L13.0255 22.6063C12.635 22.9969 12.0019 22.9969 11.6113 22.6063L1.71184 12.7069C1.32131 12.3163 1.32131 11.6832 1.71184 11.2926L10.9042 2.10022ZM11.6113 4.22154L3.83316 11.9997L12.3184 20.485L20.0966 12.7069L19.036 5.2822L11.6113 4.22154ZM13.7327 10.5855C12.9516 9.80445 12.9516 8.53812 13.7327 7.75707C14.5137 6.97603 15.78 6.97603 16.5611 7.75707C17.3421 8.53812 17.3421 9.80445 16.5611 10.5855C15.78 11.3666 14.5137 11.3666 13.7327 10.5855Z" fill="#CBAF1C"/>
</svg>
