<svg width="189" height="21" viewBox="0 0 189 21" fill="none" xmlns="http://www.w3.org/2000/svg">
<path d="M50.3352 17.339H47.6697V13.1622C47.6697 12.1662 47.6495 10.8845 46.2807 10.8845C44.891 10.8845 44.6787 11.9683 44.6787 13.0887V17.339H42.0132V8.75H44.5737V9.9207H44.6082C44.966 9.2457 45.836 8.53325 47.1357 8.53325C49.8365 8.53325 50.336 10.3108 50.336 12.6245L50.3352 17.339ZM39.0027 7.57475C38.1447 7.57475 37.4555 6.88025 37.4555 6.026C37.4555 5.1725 38.1455 4.47875 39.0027 4.47875C39.8577 4.47875 40.5508 5.1725 40.5508 6.026C40.5508 6.88025 39.857 7.57475 39.0027 7.57475ZM40.3393 17.339H37.6663V8.75H40.3393V17.339ZM51.6687 2H36.3282C35.594 2 35 2.5805 35 3.29675V18.7033C35 19.4202 35.594 20 36.3282 20H51.6665C52.4 20 53 19.4202 53 18.7033V3.29675C53 2.5805 52.4 2 51.6665 2H51.6687Z" fill="#CBAF1C"/>
<path d="M10 8C8.34262 8 7 9.3431 7 11C7 12.6573 8.34312 14 10 14C11.6573 14 13 12.6569 13 11C13 9.3427 11.6569 8 10 8ZM10 6C12.7604 6 15 8.2371 15 11C15 13.7605 12.7629 16 10 16C7.23953 16 5 13.7629 5 11C5 8.23953 7.2371 6 10 6ZM16.5 5.74915C16.5 6.43926 15.9392 6.99917 15.25 6.99917C14.5599 6.99917 14 6.4384 14 5.74915C14 5.0599 14.5607 4.5 15.25 4.5C15.9383 4.49913 16.5 5.0599 16.5 5.74915ZM10 3C7.52552 3 7.1222 3.00655 5.97129 3.0578C5.18717 3.09461 4.66155 3.20007 4.17318 3.38967C3.73918 3.55799 3.42611 3.75898 3.09254 4.09255C2.75769 4.4274 2.55706 4.73963 2.38942 5.17383C2.19938 5.66332 2.09395 6.18811 2.0578 6.97115C2.00605 8.0752 2 8.46105 2 11C2 13.4745 2.00655 13.8778 2.05779 15.0286C2.09462 15.8124 2.20022 16.3388 2.38936 16.826C2.55812 17.2606 2.75952 17.5744 3.09148 17.9064C3.42765 18.2421 3.74081 18.4434 4.17089 18.6094C4.66521 18.8005 5.1905 18.9061 5.97114 18.9422C7.0752 18.9939 7.46105 19 10 19C12.4745 19 12.8778 18.9934 14.0286 18.9422C14.8107 18.9055 15.3375 18.7996 15.826 18.6106C16.2594 18.4423 16.5742 18.2402 16.9064 17.9085C17.2426 17.5718 17.4435 17.2594 17.6097 16.8283C17.8003 16.3358 17.9061 15.8098 17.9422 15.0289C17.9939 13.9248 18 13.5389 18 11C18 8.52552 17.9934 8.12221 17.9422 6.97137C17.9054 6.18906 17.7995 5.66149 17.6103 5.17318C17.4424 4.74038 17.2407 4.42635 16.9074 4.09255C16.572 3.75715 16.2606 3.55693 15.8261 3.38942C15.337 3.19954 14.8114 3.09396 14.0288 3.05781C12.9248 3.00605 12.5389 3 10 3ZM10 1C12.7166 1 13.0558 1.01 14.1225 1.06C15.1866 1.10917 15.9125 1.2775 16.55 1.525C17.2091 1.77917 17.7658 2.1225 18.3216 2.67833C18.8766 3.23417 19.22 3.7925 19.475 4.45C19.7216 5.08667 19.89 5.81333 19.94 6.8775C19.9875 7.94417 20 8.28333 20 11C20 13.7167 19.99 14.0558 19.94 15.1225C19.8908 16.1867 19.7216 16.9125 19.475 17.55C19.2208 18.2092 18.8766 18.7658 18.3216 19.3217C17.7658 19.8767 17.2066 20.22 16.55 20.475C15.9125 20.7217 15.1866 20.89 14.1225 20.94C13.0558 20.9875 12.7166 21 10 21C7.28333 21 6.94416 20.99 5.8775 20.94C4.81333 20.8908 4.08833 20.7217 3.45 20.475C2.79166 20.2208 2.23416 19.8767 1.67833 19.3217C1.1225 18.7658 0.78 18.2067 0.525 17.55C0.2775 16.9125 0.11 16.1867 0.0600002 15.1225C0.0125002 14.0558 0 13.7167 0 11C0 8.28333 0.0100002 7.94417 0.0600002 6.8775C0.10916 5.8125 0.2775 5.0875 0.525 4.45C0.77916 3.79167 1.1225 3.23417 1.67833 2.67833C2.23416 2.1225 2.7925 1.78 3.45 1.525C4.0875 1.2775 4.8125 1.11 5.8775 1.06C6.94416 1.0125 7.28333 1 10 1Z" fill="#CBAF1C"/>
<path d="M183.401 18V11.0344H185.734L186.083 8.3265H183.401V6.59765C183.401 5.81364 183.619 5.27934 184.743 5.27934L186.177 5.27867V2.85676C185.929 2.82382 185.078 2.75006 184.088 2.75006C182.02 2.75006 180.605 4.01198 180.605 6.32952V8.3265H178.267V11.0344H180.605V18H171.999C171.447 18 170.999 17.5523 170.999 17V1C170.999 0.44772 171.447 0 171.999 0H187.999C188.551 0 188.999 0.44772 188.999 1V17C188.999 17.5523 188.551 18 187.999 18H183.401Z" fill="#CBAF1C"/>
<path d="M152.204 0.25H155.512L148.285 8.51L156.787 19.75H150.13L144.916 12.933L138.95 19.75H135.64L143.37 10.915L135.214 0.25H142.04L146.753 6.481L152.204 0.25ZM151.043 17.77H152.876L141.044 2.126H139.077L151.043 17.77Z" fill="#CBAF1C"/>
<path d="M113.371 0.0944217C108.424 -0.587318 103.733 2.48505 102.38 7.29256C101.026 12.1001 103.426 17.1692 108.002 19.1689C107.942 18.4008 107.996 17.628 108.164 16.8761C108.349 16.0374 109.46 11.4132 109.46 11.4132C109.239 10.9173 109.128 10.379 109.136 9.8359C109.136 8.3509 109.993 7.24295 111.059 7.24295C111.446 7.23718 111.817 7.40028 112.075 7.68981C112.333 7.97934 112.452 8.3667 112.401 8.751C112.401 9.6512 111.823 11.0131 111.522 12.2903C111.4 12.7656 111.512 13.2703 111.823 13.65C112.133 14.0296 112.606 14.2389 113.096 14.2139C114.993 14.2139 116.267 11.7825 116.267 8.9126C116.267 6.71205 114.809 5.0655 112.123 5.0655C110.825 5.01531 109.563 5.4996 108.631 6.40543C107.7 7.31126 107.18 8.5595 107.193 9.859C107.165 10.5722 107.395 11.2717 107.841 11.8287C108.013 11.9564 108.079 12.1825 108.003 12.3827C107.957 12.5673 107.841 13.0059 107.795 13.1675C107.775 13.278 107.705 13.3728 107.604 13.4228C107.504 13.4729 107.386 13.4724 107.286 13.4214C105.901 12.8674 105.249 11.3439 105.249 9.6051C105.249 6.75822 107.633 3.3497 112.403 3.3497C116.199 3.3497 118.722 6.1273 118.722 9.0972C118.722 13.0059 116.546 15.9451 113.329 15.9451C112.352 15.9761 111.426 15.5061 110.875 14.6986C110.875 14.6986 110.296 17.0146 110.183 17.4531C109.95 18.2099 109.607 18.9281 109.164 19.5844C110.087 19.8643 111.046 20.0044 112.01 20C114.663 20.0017 117.207 18.9484 119.082 17.072C120.957 15.1957 122.009 12.6504 122.006 9.9975C122.003 5.00306 118.317 0.776162 113.371 0.0944217Z" fill="#CBAF1C"/>
<path d="M78.2429 3C78.777 3.00294 80.1133 3.01586 81.5331 3.07273L82.0365 3.09468C83.466 3.16236 84.8943 3.27798 85.6027 3.4755C86.5476 3.74095 87.2903 4.5155 87.5413 5.49732C87.941 7.05641 87.991 10.0994 87.9972 10.8358L87.9981 10.9884V10.9991C87.9981 10.9991 87.9981 11.0028 87.9981 11.0099L87.9972 11.1625C87.991 11.8989 87.941 14.9419 87.5413 16.501C87.2868 17.4864 86.5441 18.261 85.6027 18.5228C84.8943 18.7203 83.466 18.8359 82.0365 18.9036L81.5331 18.9255C80.1133 18.9824 78.777 18.9953 78.2429 18.9983L78.0085 18.9991H77.9981C77.9981 18.9991 77.9946 18.9991 77.9877 18.9991L77.7535 18.9983C76.6231 18.9921 71.8967 18.941 70.3935 18.5228C69.4486 18.2573 68.7059 17.4828 68.4549 16.501C68.0552 14.9419 68.0053 11.8989 67.999 11.1625V10.8358C68.0053 10.0994 68.0552 7.05641 68.4549 5.49732C68.7094 4.51186 69.4521 3.73732 70.3935 3.4755C71.8967 3.05723 76.6231 3.00622 77.7535 3H78.2429ZM75.9981 7.49914V14.4991L81.9981 10.9991L75.9981 7.49914Z" fill="#CBAF1C"/>
</svg>
