<svg width="18" height="18" viewBox="0 0 18 18" fill="none" xmlns="http://www.w3.org/2000/svg">
<path d="M17.3416 16.3158L12.5819 11.5452C13.7256 10.169 14.2959 8.40388 14.1742 6.61695C14.0525 4.83002 13.2481 3.15891 11.9284 1.95126C10.6087 0.74361 8.87524 0.0923945 7.08867 0.133085C5.30209 0.173775 3.59995 0.903239 2.33632 2.16973C1.0727 3.43622 0.344883 5.14222 0.304284 6.93285C0.263686 8.72347 0.913429 10.4608 2.11835 11.7836C3.32327 13.1063 4.9906 13.9125 6.77348 14.0345C8.55637 14.1565 10.3175 13.5848 11.6906 12.4385L16.4504 17.209L17.3416 16.3158ZM1.5853 7.10213C1.5853 5.97772 1.91797 4.87856 2.54125 3.94364C3.16453 3.00873 4.05041 2.28005 5.08689 1.84976C6.12336 1.41947 7.26386 1.30688 8.36417 1.52624C9.46449 1.74561 10.4752 2.28706 11.2685 3.08214C12.0618 3.87722 12.602 4.89021 12.8208 5.99302C13.0397 7.09583 12.9274 8.23891 12.4981 9.27774C12.0687 10.3166 11.3417 11.2045 10.4089 11.8291C9.47611 12.4538 8.37944 12.7873 7.25757 12.7873C5.7537 12.7856 4.31191 12.1861 3.24851 11.1203C2.18512 10.0545 1.58697 8.60941 1.5853 7.10213Z" fill="#323232"/>
</svg>
